REM DIRINDEX 1\2,1\3
REM DIRNAME cjc036,folder01,folder02
TITLE ""
FILE "NextStage_4th-Part5-P215-4.mp3" MP3
  TRACK 01 AUDIO
    TITLE "0:"
    INDEX 01 00:00:00
  TRACK 02 AUDIO
    TITLE "3:cjc036_2987"
    INDEX 01 00:00:03
  TRACK 03 AUDIO
    TITLE "0:"
    INDEX 01 00:02:36
  TRACK 04 AUDIO
    TITLE "3:cjc036_2988"
    INDEX 01 00:02:47
  TRACK 05 AUDIO
    TITLE "0:"
    INDEX 01 00:03:43
  TRACK 06 AUDIO
    TITLE "2:cjc036_2989"
    INDEX 01 00:03:51
  TRACK 07 AUDIO
    TITLE "0:"
    INDEX 01 00:06:61
  TRACK 08 AUDIO
    TITLE "3:cjc036_2990"
    INDEX 01 00:07:05
  TRACK 09 AUDIO
    TITLE "0:"
    INDEX 01 00:07:74
  TRACK 10 AUDIO
    TITLE "2:cjc036_2991"
    INDEX 01 00:08:01
  TRACK 11 AUDIO
    TITLE "0:"
    INDEX 01 00:11:33
  TRACK 12 AUDIO
    TITLE "3:cjc036_2992"
    INDEX 01 00:12:20
  TRACK 13 AUDIO
    TITLE "0:"
    INDEX 01 00:14:33
  TRACK 14 AUDIO
    TITLE "3:cjc036_2993"
    INDEX 01 00:14:53
  TRACK 15 AUDIO
    TITLE "0:"
    INDEX 01 00:15:44
  TRACK 16 AUDIO
    TITLE "2:cjc036_2994"
    INDEX 01 00:15:46
  TRACK 17 AUDIO
    TITLE "0:"
    INDEX 01 00:18:44
  TRACK 18 AUDIO
    TITLE "3:cjc036_2995"
    INDEX 01 00:18:64
  TRACK 19 AUDIO
    TITLE "0:"
    INDEX 01 00:19:63
  TRACK 20 AUDIO
    TITLE "2:cjc036_2996"
    INDEX 01 00:19:69
  TRACK 21 AUDIO
    TITLE "0:"
    INDEX 01 00:24:57
  TRACK 22 AUDIO
    TITLE "3:cjc036_2997"
    INDEX 01 00:25:35
  TRACK 23 AUDIO
    TITLE "0:"
    INDEX 01 00:27:69
  TRACK 24 AUDIO
    TITLE "3:cjc036_2998"
    INDEX 01 00:28:13
  TRACK 25 AUDIO
    TITLE "0:"
    INDEX 01 00:29:11
  TRACK 26 AUDIO
    TITLE "2:cjc036_2999"
    INDEX 01 00:29:13
  TRACK 27 AUDIO
    TITLE "0:"
    INDEX 01 00:32:58
  TRACK 28 AUDIO
    TITLE "3:cjc036_3000"
    INDEX 01 00:32:70
  TRACK 29 AUDIO
    TITLE "0:"
    INDEX 01 00:33:69
  TRACK 30 AUDIO
    TITLE "2:cjc036_3001"
    INDEX 01 00:33:71
  TRACK 31 AUDIO
    TITLE "0:"
    INDEX 01 00:39:15
  TRACK 32 AUDIO
    TITLE "3:cjc036_3002"
    INDEX 01 00:39:31
  TRACK 33 AUDIO
    TITLE "0:"
    INDEX 01 00:40:32
  TRACK 34 AUDIO
    TITLE "2:cjc036_3003"
    INDEX 01 00:40:38
  TRACK 35 AUDIO
    TITLE "0:"
    INDEX 01 00:45:22
  TRACK 36 AUDIO
    TITLE "3:cjc036_3004"
    INDEX 01 00:45:69
  TRACK 37 AUDIO
    TITLE "0:"
    INDEX 01 00:48:22
  TRACK 38 AUDIO
    TITLE "3:cjc036_3005"
    INDEX 01 00:48:42
  TRACK 39 AUDIO
    TITLE "0:"
    INDEX 01 00:49:37
  TRACK 40 AUDIO
    TITLE "2:cjc036_3006"
    INDEX 01 00:49:39
  TRACK 41 AUDIO
    TITLE "0:"
    INDEX 01 00:52:16
  TRACK 42 AUDIO
    TITLE "3:cjc036_3007"
    INDEX 01 00:52:30
  TRACK 43 AUDIO
    TITLE "0:"
    INDEX 01 00:53:27
  TRACK 44 AUDIO
    TITLE "2:cjc036_3008"
    INDEX 01 00:53:35
  TRACK 45 AUDIO
    TITLE "0:"
    INDEX 01 00:56:41
  TRACK 46 AUDIO
    TITLE "3:cjc036_3009"
    INDEX 01 00:56:57
  TRACK 47 AUDIO
    TITLE "0:"
    INDEX 01 00:57:52
  TRACK 48 AUDIO
    TITLE "2:cjc036_3010"
    INDEX 01 00:57:54
  TRACK 49 AUDIO
    TITLE "0:"
    INDEX 01 01:01:05
  TRACK 50 AUDIO
    TITLE "3:cjc036_3011"
    INDEX 01 01:01:44
  TRACK 51 AUDIO
    TITLE "0:"
    INDEX 01 01:04:00
  TRACK 52 AUDIO
    TITLE "3:cjc036_3012"
    INDEX 01 01:04:17
  TRACK 53 AUDIO
    TITLE "0:"
    INDEX 01 01:05:17
  TRACK 54 AUDIO
    TITLE "2:cjc036_3013"
    INDEX 01 01:05:21
  TRACK 55 AUDIO
    TITLE "0:"
    INDEX 01 01:08:68
  TRACK 56 AUDIO
    TITLE "3:cjc036_3014"
    INDEX 01 01:09:14
  TRACK 57 AUDIO
    TITLE "0:"
    INDEX 01 01:10:06
  TRACK 58 AUDIO
    TITLE "2:cjc036_3015"
    INDEX 01 01:10:16
  TRACK 59 AUDIO
    TITLE "0:"
    INDEX 01 01:13:34
  TRACK 60 AUDIO
    TITLE "3:cjc036_3016"
    INDEX 01 01:14:06
  TRACK 61 AUDIO
    TITLE "0:"
    INDEX 01 01:16:36
  TRACK 62 AUDIO
    TITLE "3:cjc036_3017"
    INDEX 01 01:16:48
  TRACK 63 AUDIO
    TITLE "0:"
    INDEX 01 01:17:47
  TRACK 64 AUDIO
    TITLE "2:cjc036_3018"
    INDEX 01 01:17:51
  TRACK 65 AUDIO
    TITLE "0:"
    INDEX 01 01:20:22
  TRACK 66 AUDIO
    TITLE "3:cjc036_3019"
    INDEX 01 01:20:48
  TRACK 67 AUDIO
    TITLE "0:"
    INDEX 01 01:21:43
  TRACK 68 AUDIO
    TITLE "2:cjc036_3020"
    INDEX 01 01:21:45
  TRACK 69 AUDIO
    TITLE "0:"
    INDEX 01 01:25:70
  TRACK 70 AUDIO
    TITLE "3:cjc036_3021"
    INDEX 01 01:26:52
  TRACK 71 AUDIO
    TITLE "0:"
    INDEX 01 01:29:03
  TRACK 72 AUDIO
    TITLE "3:cjc036_3022"
    INDEX 01 01:29:29
  TRACK 73 AUDIO
    TITLE "0:"
    INDEX 01 01:30:26
  TRACK 74 AUDIO
    TITLE "2:cjc036_3023"
    INDEX 01 01:30:34
  TRACK 75 AUDIO
    TITLE "0:"
    INDEX 01 01:33:25
  TRACK 76 AUDIO
    TITLE "3:cjc036_3024"
    INDEX 01 01:33:38
  TRACK 77 AUDIO
    TITLE "0:"
    INDEX 01 01:34:32
  TRACK 78 AUDIO
    TITLE "2:cjc036_3025"
    INDEX 01 01:34:44
  TRACK 79 AUDIO
    TITLE "0:"
    INDEX 01 01:38:63
  TRACK 80 AUDIO
    TITLE "3:cjc036_3026"
    INDEX 01 01:39:06
  TRACK 81 AUDIO
    TITLE "0:"
    INDEX 01 01:40:09
  TRACK 82 AUDIO
    TITLE "2:cjc036_3027"
    INDEX 01 01:40:15
  TRACK 83 AUDIO
    TITLE "0:"
    INDEX 01 01:43:54
  TRACK 84 AUDIO
    TITLE "3:cjc036_3028"
    INDEX 01 01:44:46
  TRACK 85 AUDIO
    TITLE "0:"
    INDEX 01 01:47:05
  TRACK 86 AUDIO
    TITLE "3:cjc036_3029"
    INDEX 01 01:47:25
  TRACK 87 AUDIO
    TITLE "0:"
    INDEX 01 01:48:22
  TRACK 88 AUDIO
    TITLE "2:cjc036_3030"
    INDEX 01 01:48:24
  TRACK 89 AUDIO
    TITLE "0:"
    INDEX 01 01:51:32
  TRACK 90 AUDIO
    TITLE "3:cjc036_3031"
    INDEX 01 01:51:44
  TRACK 91 AUDIO
    TITLE "0:"
    INDEX 01 01:52:42
  TRACK 92 AUDIO
    TITLE "2:cjc036_3032"
    INDEX 01 01:52:44
  TRACK 93 AUDIO
    TITLE "0:"
    INDEX 01 01:55:40
  TRACK 94 AUDIO
    TITLE "3:cjc036_3033"
    INDEX 01 01:56:12
  TRACK 95 AUDIO
    TITLE "0:"
    INDEX 01 01:58:44
  TRACK 96 AUDIO
    TITLE "3:cjc036_3034"
    INDEX 01 01:58:46
  TRACK 97 AUDIO
    TITLE "0:"
    INDEX 01 01:59:44
  TRACK 98 AUDIO
    TITLE "2:cjc036_3035"
    INDEX 01 01:59:46
  TRACK 99 AUDIO
    TITLE "0:"
    INDEX 01 02:03:04
  TRACK 100 AUDIO
    TITLE "3:cjc036_3036"
    INDEX 01 02:03:30
  TRACK 101 AUDIO
    TITLE "0:"
    INDEX 01 02:04:23
  TRACK 102 AUDIO
    TITLE "2:cjc036_3037"
    INDEX 01 02:04:41
  TRACK 103 AUDIO
    TITLE "0:"
    INDEX 01 02:09:26
